<svg id="Layer_1" data-name="Layer 1" xmlns="http://www.w3.org/2000/svg" viewBox="0 0 49.06 21.58"><defs><style>.cls-1,.cls-3{fill:#fff;}.cls-1{stroke:#111468;stroke-miterlimit:10;stroke-width:0.05px;}.cls-2{fill:#080351;}.cls-4{fill:#fed201;}.cls-5{fill:#feface;}</style></defs><rect class="cls-1" x="0.02" y="0.03" width="49.01" height="21.53" rx="10.77"/><circle class="cls-2" cx="37.78" cy="10.83" r="9.22"/><path class="cls-3" d="M37.81,16.57c-.75-.75,8.73.77,8.73,8.05A8.15,8.15,0,0,1,38.31,33c-2.63,0-5.64-1.87-5-1.68a7.08,7.08,0,0,0,8.45-6.65C42.06,20.13,38.29,17.05,37.81,16.57Z" transform="translate(-0.47 -13.92)"/><polygon class="cls-4" points="36.12 13.72 35.97 13 35.27 12.9 35.95 12.79 36.1 12.05 36.24 12.79 36.95 12.88 36.27 13.02 36.12 13.72"/><polygon class="cls-5" points="36.12 13.4 36.02 12.96 35.6 12.89 36.02 12.83 36.1 12.38 36.19 12.83 36.62 12.88 36.2 12.97 36.12 13.4"/><polygon class="cls-4" points="36.63 9.26 36.48 8.54 35.78 8.43 36.46 8.33 36.61 7.59 36.75 8.33 37.45 8.41 36.77 8.56 36.63 9.26"/><polygon class="cls-5" points="36.63 8.93 36.53 8.49 36.11 8.43 36.52 8.36 36.61 7.91 36.7 8.36 37.13 8.42 36.72 8.51 36.63 8.93"/><polygon class="cls-4" points="37.47 6.55 37.31 5.83 36.62 5.73 37.3 5.62 37.45 4.88 37.58 5.62 38.29 5.71 37.61 5.86 37.47 6.55"/><polygon class="cls-5" points="37.46 6.23 37.37 5.79 36.95 5.72 37.36 5.66 37.45 5.21 37.53 5.66 37.97 5.71 37.55 5.8 37.46 6.23"/><polygon class="cls-4" points="37.32 15.82 37.17 15.1 36.47 14.99 37.15 14.88 37.3 14.14 37.43 14.88 38.14 14.97 37.46 15.12 37.32 15.82"/><polygon class="cls-5" points="37.31 15.49 37.22 15.05 36.8 14.99 37.21 14.92 37.3 14.47 37.38 14.92 37.82 14.97 37.4 15.06 37.31 15.49"/><polygon class="cls-4" points="33.66 11.75 33.45 11.24 33.01 11.09 33.47 10.98 33.66 10.43 33.8 10.92 34.32 11.09 33.82 11.26 33.66 11.75"/><polygon class="cls-5" points="33.67 11.6 33.58 11.16 33.15 11.1 33.57 11.03 33.66 10.58 33.74 11.03 34.17 11.08 33.76 11.17 33.67 11.6"/><polygon class="cls-4" points="38.45 12.44 38.24 11.93 37.79 11.78 38.25 11.67 38.45 11.12 38.59 11.61 39.1 11.78 38.6 11.95 38.45 12.44"/><polygon class="cls-5" points="38.45 12.29 38.36 11.85 37.94 11.79 38.35 11.72 38.44 11.27 38.52 11.72 38.96 11.78 38.54 11.87 38.45 12.29"/><polygon class="cls-4" points="32.03 13.17 31.91 12.89 31.66 12.8 31.92 12.74 32.03 12.43 32.11 12.71 32.4 12.8 32.12 12.89 32.03 13.17"/><polygon class="cls-5" points="32.04 13.09 31.98 12.84 31.75 12.8 31.98 12.77 32.03 12.51 32.08 12.77 32.32 12.8 32.09 12.85 32.04 13.09"/><polygon class="cls-4" points="36.16 7.1 36.04 6.81 35.78 6.73 36.05 6.67 36.16 6.36 36.23 6.63 36.52 6.73 36.24 6.82 36.16 7.1"/><polygon class="cls-5" points="36.16 7.02 36.11 6.77 35.87 6.73 36.1 6.7 36.15 6.44 36.2 6.7 36.44 6.73 36.21 6.78 36.16 7.02"/><polygon class="cls-4" points="37.94 7.76 37.82 7.47 37.57 7.39 37.83 7.32 37.94 7.02 38.02 7.29 38.31 7.39 38.02 7.48 37.94 7.76"/><polygon class="cls-5" points="37.94 7.67 37.89 7.43 37.65 7.39 37.88 7.35 37.93 7.1 37.98 7.35 38.22 7.38 37.99 7.43 37.94 7.67"/><polygon class="cls-4" points="34.35 13.46 34.23 13.17 33.98 13.09 34.24 13.03 34.35 12.72 34.43 12.99 34.72 13.09 34.44 13.18 34.35 13.46"/><polygon class="cls-5" points="34.35 13.38 34.3 13.13 34.06 13.09 34.3 13.05 34.34 12.8 34.39 13.05 34.63 13.09 34.4 13.13 34.35 13.38"/><polygon class="cls-4" points="38.22 14.09 38.1 13.81 37.85 13.72 38.11 13.66 38.22 13.35 38.3 13.63 38.59 13.72 38.3 13.81 38.22 14.09"/><polygon class="cls-5" points="38.22 14.01 38.17 13.76 37.93 13.73 38.16 13.69 38.21 13.44 38.26 13.69 38.5 13.72 38.27 13.77 38.22 14.01"/><polygon class="cls-4" points="34.53 9.63 34.42 9.34 34.16 9.26 34.42 9.2 34.53 8.89 34.61 9.16 34.91 9.26 34.62 9.35 34.53 9.63"/><polygon class="cls-5" points="34.54 9.55 34.49 9.3 34.25 9.26 34.48 9.22 34.53 8.97 34.58 9.22 34.82 9.26 34.59 9.31 34.54 9.55"/><polygon class="cls-4" points="38.96 9.63 38.84 9.34 38.59 9.26 38.85 9.2 38.96 8.89 39.03 9.16 39.33 9.26 39.04 9.35 38.96 9.63"/><polygon class="cls-5" points="38.96 9.55 38.91 9.3 38.67 9.26 38.9 9.22 38.95 8.97 39 9.22 39.24 9.26 39.01 9.31 38.96 9.55"/><polygon class="cls-4" points="36.66 11.45 36.45 10.94 36.01 10.79 36.47 10.68 36.66 10.13 36.8 10.62 37.32 10.79 36.82 10.96 36.66 11.45"/><polygon class="cls-5" points="36.67 11.3 36.58 10.86 36.16 10.8 36.57 10.73 36.66 10.28 36.74 10.73 37.17 10.79 36.76 10.88 36.67 11.3"/><polygon class="cls-4" points="34.35 7.39 34.2 7.02 33.88 6.92 34.21 6.84 34.35 6.45 34.45 6.8 34.82 6.92 34.46 7.04 34.35 7.39"/><polygon class="cls-5" points="34.35 7.28 34.28 6.97 33.98 6.92 34.28 6.88 34.34 6.55 34.4 6.88 34.71 6.91 34.41 6.98 34.35 7.28"/><polygon class="cls-4" points="33.81 14.98 33.66 14.62 33.34 14.51 33.67 14.43 33.81 14.04 33.91 14.39 34.28 14.51 33.92 14.63 33.81 14.98"/><polygon class="cls-5" points="33.82 14.88 33.75 14.56 33.45 14.52 33.74 14.47 33.81 14.15 33.87 14.47 34.17 14.51 33.88 14.57 33.82 14.88"/></svg>