<svg id="Layer_1" data-name="Layer 1" xmlns="http://www.w3.org/2000/svg" viewBox="0 0 50.01 22.53"><defs><style>.cls-1{fill:none;stroke:#080351;stroke-miterlimit:10;}.cls-2{fill:#080351;}.cls-3{fill:#fff;}.cls-4{fill:#fed201;}.cls-5{fill:#feface;}</style></defs><rect class="cls-1" x="0.5" y="0.5" width="49.01" height="21.53" rx="10.77"/><circle class="cls-2" cx="38.25" cy="11.3" r="9.22"/><path class="cls-3" d="M37.81,16.57c-.75-.75,8.73.77,8.73,8.05A8.15,8.15,0,0,1,38.31,33c-2.63,0-5.64-1.87-5-1.68a7.08,7.08,0,0,0,8.45-6.65C42.06,20.13,38.29,17.05,37.81,16.57Z" transform="translate(0.01 -13.44)"/><polygon class="cls-4" points="36.59 14.2 36.44 13.48 35.75 13.37 36.43 13.27 36.58 12.53 36.71 13.27 37.42 13.35 36.74 13.5 36.59 14.2"/><polygon class="cls-5" points="36.59 13.87 36.5 13.43 36.08 13.37 36.49 13.3 36.58 12.85 36.66 13.3 37.09 13.36 36.68 13.45 36.59 13.87"/><polygon class="cls-4" points="37.1 9.73 36.95 9.01 36.26 8.91 36.94 8.8 37.09 8.06 37.22 8.8 37.93 8.89 37.25 9.04 37.1 9.73"/><polygon class="cls-5" points="37.1 9.41 37.01 8.97 36.59 8.9 37 8.84 37.09 8.39 37.17 8.84 37.6 8.89 37.19 8.98 37.1 9.41"/><polygon class="cls-4" points="37.94 7.03 37.79 6.31 37.09 6.2 37.77 6.1 37.92 5.36 38.06 6.1 38.77 6.18 38.09 6.33 37.94 7.03"/><polygon class="cls-5" points="37.94 6.7 37.84 6.26 37.42 6.2 37.84 6.13 37.92 5.68 38.01 6.13 38.44 6.19 38.02 6.28 37.94 6.7"/><polygon class="cls-4" points="37.79 16.29 37.64 15.57 36.95 15.46 37.63 15.36 37.77 14.62 37.91 15.36 38.62 15.45 37.94 15.59 37.79 16.29"/><polygon class="cls-5" points="37.79 15.97 37.7 15.53 37.27 15.46 37.69 15.4 37.78 14.95 37.86 15.4 38.29 15.45 37.88 15.54 37.79 15.97"/><polygon class="cls-4" points="34.14 12.22 33.93 11.71 33.48 11.56 33.94 11.45 34.14 10.91 34.28 11.39 34.8 11.56 34.29 11.73 34.14 12.22"/><polygon class="cls-5" points="34.14 12.07 34.05 11.63 33.63 11.57 34.04 11.51 34.13 11.05 34.22 11.51 34.65 11.56 34.23 11.65 34.14 12.07"/><polygon class="cls-4" points="38.92 12.91 38.71 12.41 38.26 12.26 38.73 12.14 38.92 11.6 39.06 12.09 39.58 12.26 39.08 12.42 38.92 12.91"/><polygon class="cls-5" points="38.93 12.77 38.84 12.33 38.41 12.26 38.83 12.2 38.91 11.75 39 12.2 39.43 12.25 39.02 12.34 38.93 12.77"/><polygon class="cls-4" points="32.51 13.65 32.39 13.36 32.14 13.28 32.4 13.21 32.51 12.91 32.59 13.18 32.88 13.28 32.59 13.37 32.51 13.65"/><polygon class="cls-5" points="32.51 13.56 32.46 13.32 32.22 13.28 32.45 13.24 32.5 12.99 32.55 13.24 32.8 13.27 32.56 13.32 32.51 13.56"/><polygon class="cls-4" points="36.63 7.57 36.51 7.29 36.26 7.2 36.52 7.14 36.63 6.83 36.71 7.11 37 7.2 36.72 7.3 36.63 7.57"/><polygon class="cls-5" points="36.63 7.49 36.58 7.24 36.34 7.21 36.58 7.17 36.63 6.92 36.67 7.17 36.92 7.2 36.68 7.25 36.63 7.49"/><polygon class="cls-4" points="38.41 8.23 38.29 7.95 38.04 7.86 38.3 7.8 38.41 7.49 38.49 7.77 38.78 7.86 38.5 7.95 38.41 8.23"/><polygon class="cls-5" points="38.41 8.15 38.36 7.9 38.12 7.87 38.36 7.83 38.41 7.58 38.45 7.83 38.7 7.86 38.47 7.91 38.41 8.15"/><polygon class="cls-4" points="34.82 13.93 34.7 13.65 34.45 13.56 34.71 13.5 34.82 13.19 34.9 13.47 35.19 13.56 34.91 13.66 34.82 13.93"/><polygon class="cls-5" points="34.83 13.85 34.77 13.6 34.54 13.57 34.77 13.53 34.82 13.28 34.87 13.53 35.11 13.56 34.88 13.61 34.83 13.85"/><polygon class="cls-4" points="38.69 14.57 38.57 14.28 38.32 14.2 38.58 14.13 38.69 13.83 38.77 14.1 39.06 14.2 38.78 14.29 38.69 14.57"/><polygon class="cls-5" points="38.7 14.48 38.64 14.24 38.41 14.2 38.64 14.16 38.69 13.91 38.73 14.16 38.98 14.19 38.74 14.24 38.7 14.48"/><polygon class="cls-4" points="35.01 10.1 34.89 9.82 34.64 9.73 34.9 9.67 35.01 9.36 35.09 9.64 35.38 9.73 35.1 9.83 35.01 10.1"/><polygon class="cls-5" points="35.01 10.02 34.96 9.77 34.72 9.74 34.96 9.7 35.01 9.45 35.05 9.7 35.3 9.73 35.06 9.78 35.01 10.02"/><polygon class="cls-4" points="39.43 10.1 39.31 9.82 39.06 9.73 39.32 9.67 39.43 9.36 39.51 9.64 39.8 9.73 39.52 9.83 39.43 10.1"/><polygon class="cls-5" points="39.44 10.02 39.38 9.77 39.14 9.74 39.38 9.7 39.43 9.45 39.48 9.7 39.72 9.73 39.48 9.78 39.44 10.02"/><polygon class="cls-4" points="37.14 11.93 36.93 11.42 36.48 11.27 36.95 11.15 37.14 10.61 37.28 11.1 37.8 11.27 37.29 11.43 37.14 11.93"/><polygon class="cls-5" points="37.15 11.78 37.05 11.34 36.63 11.27 37.05 11.21 37.13 10.76 37.22 11.21 37.65 11.26 37.23 11.35 37.15 11.78"/><polygon class="cls-4" points="34.82 7.86 34.67 7.5 34.35 7.39 34.68 7.31 34.82 6.92 34.92 7.27 35.29 7.39 34.93 7.51 34.82 7.86"/><polygon class="cls-5" points="34.83 7.76 34.76 7.44 34.46 7.4 34.75 7.35 34.82 7.03 34.88 7.35 35.19 7.39 34.89 7.45 34.83 7.76"/><polygon class="cls-4" points="34.29 15.46 34.14 15.09 33.82 14.99 34.15 14.91 34.29 14.52 34.39 14.87 34.76 14.99 34.4 15.1 34.29 15.46"/><polygon class="cls-5" points="34.29 15.35 34.23 15.04 33.92 14.99 34.22 14.94 34.28 14.62 34.34 14.94 34.65 14.98 34.35 15.05 34.29 15.35"/></svg>