<svg id="Layer_1" data-name="Layer 1" xmlns="http://www.w3.org/2000/svg" viewBox="0 0 49.9 21.25"><defs><style>.cls-1{fill:none;stroke:#f4b911;stroke-miterlimit:10;}.cls-2{fill:#f4b911;}.cls-3{fill:#f4e5be;}</style></defs><rect class="cls-1" x="0.5" y="0.5" width="48.9" height="20.25" rx="10.12"/><ellipse class="cls-2" cx="11.76" cy="10.62" rx="9.2" ry="8.67"/><polygon class="cls-3" points="19.17 12.64 13.24 11.06 18.48 14.26 13.1 11.31 17.44 15.65 12.88 11.54 16.14 16.74 12.58 11.74 14.65 17.52 12.24 11.87 13.05 17.96 11.86 11.93 11.39 18.06 11.48 11.91 9.75 17.81 11.11 11.82 8.22 17.24 10.8 11.66 6.82 16.34 10.54 11.46 5.63 15.14 10.35 11.22 4.74 13.7 10.23 10.96 4.19 12.06 10.18 10.71 4.05 10.32 10.19 10.46 4.34 8.6 10.27 10.19 5.03 6.99 10.41 9.94 6.07 5.6 10.63 9.71 7.37 4.5 10.93 9.51 8.86 3.73 11.27 9.38 10.46 3.29 11.65 9.32 12.12 3.19 12.03 9.33 13.76 3.44 12.4 9.43 15.29 4.01 12.71 9.59 16.69 4.91 12.97 9.79 17.88 6.1 13.16 10.03 18.77 7.55 13.28 10.29 19.32 9.19 13.33 10.54 19.45 10.93 13.32 10.79 19.17 12.64"/><circle class="cls-2" cx="11.76" cy="10.62" r="3.38"/></svg>